# xmcd
#
# Track frame offsets:
#	183
#	11913
#	24753
#	30890
#	40225
#	52103
#	67935
#	80758
#	90183
#	102820
#	114270
#	129925
#	143588
#
# Disc length: 2071 seconds
#
# Revision: 1
# Processed by: cddbd v1.5.2PL0 Copyright (c) Steve Scherf et al.
# Submitted via: audiograbber 1.82.01
#
DISCID=9008150d
DTITLE=Trasak Jakub - Houslickovy bal
DYEAR=1900
DGENRE=Country
TTITLE0=Houslickovy bal
TTITLE1=Huckleberry Hornpipe
TTITLE2=Severni pol
TTITLE3=Bluegrass Melody
TTITLE4=Zuzana
TTITLE5=Dvojite blues
TTITLE6=Tanec na mlate
TTITLE7=Nad kolibkou
TTITLE8=Bowtie
TTITLE9=Hraj, hraj, hraj
TTITLE10=Maly houslovy chlapec
TTITLE11=Sipkova Ruzenka
TTITLE12=Sally Ann
EXTD=
EXTT0=
EXTT1=
EXTT2=
EXTT3=
EXTT4=
EXTT5=
EXTT6=
EXTT7=
EXTT8=
EXTT9=
EXTT10=
EXTT11=
EXTT12=
PLAYORDER=
